<svg xmlns="http://www.w3.org/2000/svg" viewBox="0 0 1414.83 371.86"><defs><style>.cls-1{fill:#231f20;}</style></defs><title>Asset 1</title><g id="Layer_2" data-name="Layer 2"><g id="Layer_1-2" data-name="Layer 1"><path class="cls-1" d="M1412.41,323.61a170.26,170.26,0,0,1-75.77,39.93c-13.06,3-26.85,5-40.23,3.09a48.58,48.58,0,0,1-17.34-5.6c-8-4.67-10.83-11.89-15-19.64-5.3-9.72-14.3-13.05-25.07-12.43-14.41.84-28.1,5.3-42.67,5.35-6.2,0-16,.87-21.67-2.13-6.75-3.56-3.18-14.14-5-20.26-2.46-8.42-8.77-15.19-16.54-19.05-13.45-6.68-28.42-3-41.43,2.91-5.18,2.35-11,7.08-16.54,8-3.37.57-7.29,0-10.72,0l2.16,4v-3.51c0-.89-.93-4-2.16-4h-2.2l2.17,4v-4.73c0-.89-.94-4-2.17-4h-8.6l2.17,4v-3.43c0-.89-.94-4-2.17-4h-15.55l2.17,4V260.05c0-.89-.93-4-2.17-4h-31.85c-.31,0-.45.17-.45.5,0,4.07,1,4.76-3.14,4.76l2.16,4V241c0-.89-.93-4-2.16-4H1006.2l2.16,4v-8.22c0-.89-.93-4-2.16-4H974.34c-.31,0-.44.16-.44.5v22.32c0,3,1.09,8.55,0,11.38-.82,2.1,1,.08-.7.87-1.42.66-4.53,0-6.14,0-.31,0-.45.17-.45.5,0,1,.66,5,0,5.64-.07.06-3.82-.17-4.6-.17l2.16,4V236.93c0-.89-.93-4-2.16-4h-6.17l2.17,4V222c0-.89-.93-4-2.17-4h-11.3c-.31,0-.45.16-.45.5v6.73c0,.63.38,3,0,3.55s.61-.48-.87,0c-4,1.32-10.37,0-14.61,0-.31,0-.44.16-.44.5,0,3.92.26,3.61-3.65,3.61l2.17,4V170.62c0-.89-.94-4-2.17-4h-9.43c-.31,0-.44.16-.44.5v5.74c0,3.34.73,2.08-1.37,2.63-3.73,1-8.89,0-12.77,0l2.16,4v-8.87c0-.89-.93-4-2.16-4H881.63c-.31,0-.44.16-.44.5,0,2,.53,5,0,6.95-.67,2.4-.89,1.42-4.21,1.42l2.17,4V149.8c0-9.17,1.6-21.23-2.75-29.58-.66-1.27-1.77-3.71-3.49-3.76-.49,0-.88.39-1.25.53a4.77,4.77,0,0,0-1.38,2.36h-1.62a20.53,20.53,0,0,1-8,0c-3.39-1-4.79-3.39-8.92-2.51-2.79.59-4,2.19-6.73,2.51a69.56,69.56,0,0,1-8,0H822.57l1.58,1.92c-4.13-8.92-7.35-1.82-8.14,4.77a79.87,79.87,0,0,0-.36,9.78V263c0,4.45-.16,8.94,0,13.39,0,.39.26,2.06,0,2.37.62-.74-2.82-.42-3.49-.42h-5.32l2.17,4V226.15c0-.9-.94-4-2.17-4h-10.3l2.17,4V156.32c0-.89-.93-4-2.17-4H740.21c-.31,0-.44.16-.44.49v58.29c0,1.08-.37,3.38.2,3-1.66,1.16-7.9,0-10.05,0-.31,0-.44.16-.44.49v15.51c0,1-.18,4.67.16,4.38-1.1.92-6.53,0-8.08,0l2.16,4v-8.73c0-.89-.93-4-2.16-4h-7.71c-.31,0-.44.16-.44.49v5.66c0,2.51.72,2.58-1.62,2.58-.31,0-.44.16-.44.5v12c0,1.75.56,4.89,0,6.59s.25.88-2.48.88l2.16,4v-4c0-.89-.93-4-2.16-4h-3.63l2.17,4v-2.83c0-.89-.93-4-2.17-4H702l2.16,4V239.55c0-.89-.93-4-2.16-4h-1.63l2.17,4v-1c0-.89-.94-4-2.17-4h-.61l2.17,4V179c0-.89-.94-4-2.17-4H690.2l2.17,4v-3c0-.89-.93-4-2.17-4H676l1.85,2.53a37.77,37.77,0,0,1-3-11.16c-.12-1.87.64-3.55.44-5.35a6.75,6.75,0,0,0-3-4.66l1.85,3.47a11.3,11.3,0,0,1-.23-4.76c.14-.87-1-4-2.16-4h0l2.16,4v0c0-.88-.94-4-2.16-4h-1c-.31,0-.45.17-.45.49,0,2.73-1.31,5-1.29,7.59,0,.84,1,1.54,1.1,2.27.1,1.28-1.83,7.52-2.22,8.9-.56,2-.8,4-2.41,4.73-1.05.46-3.38,0-4.53,0h-8.37c-.31,0-.45.16-.45.5,0,3.09.34,2.46-2.87,2.46h-7.11c-.31,0-.44.16-.44.49V283.62c0,3.55.91,3.73-2,3.73l2.17,4V280.47c0-.89-.93-4-2.17-4h-1.48l2.17,4V269.3c0-.89-.93-4-2.17-4h-8.73l2.17,4v-20c0-.89-.94-4-2.17-4H616.8l2.16,4V135.47c0-.89-.93-4-2.16-4h-8.26l2.16,4c0-3.88,1-9.1-.23-12.81-.81-2.43-4.85-5.89-5.3-6.35-.06-.07-.62-.62-.82-.41-1.13,1.12-3.34,2.54-4,4-.55,1.22.19,4.8-.38,4.8l2.16,4v-.52c0-.89-.93-4-2.16-4h-1.85l2.17,4v-1.32c0-.89-.94-4-2.17-4h-1.92c-.31,0-.45.16-.45.49,0,1-.25.82-1.22.82-.31,0-.44.16-.44.5s-1,0-1.4,0l2.17,4v-1.13c0-.89-.94-4-2.17-4h-1.4l2.17,4V127c0-.89-.94-4-2.17-4H591c-.31,0-.45.16-.45.5s-.45.12-1,.12l2.16,4v-5.44c0-.89-.93-4-2.16-4h-5.65l2.16,4V116.7c0-.89-.93-4-2.16-4h-2.72l2.17,4v-1.23c0-.89-.93-4-2.17-4h-1l2.16,4c0-6.45.66-13.23,0-19.64-.41-4-2.68-5.77-5.52-8.61-.07-.07-.62-.62-.83-.41-3.63,3.55-4.18,3.89-4.18,8.8v10.74a19.94,19.94,0,0,1,0,4.16c-.33,1.4.55.93-.59.93-.31,0-.44.16-.44.5,0,1.28-1.24.73-2.27.73-.31,0-.45.16-.45.5,0,5.69.39,4.93-5.2,4.93-.31,0-.45.16-.45.5,0,2.17,1.08,6.07-1.24,6.07l2.16,4V126c0-.89-.93-4-2.16-4h-.71c-.31,0-.44.16-.44.49,0,1.62.4,2.22-1.4,2.22l2.17,4v-.61c0-.89-.94-4-2.17-4h-2.19c-.31,0-.44.17-.44.5s-.9.11-1.4.11l2.17,4V127c0-.9-.93-4-2.17-4h-2.1c-.31,0-.45.16-.45.49,0,.65.3,1.17-.3,1.17l2.16,4c0-6.33-1.08-7.95-5.53-12.39-.06-.06-.62-.62-.82-.41-3.35,3.42-4.18,3.6-4.18,8.27,0,1.3.16,7.28.16,7.27-1.26.92-6.3,0-8,0-.3,0-.44.17-.44.5v77.29c0,2,.73,5.62,0,7.52-.35.92-.07.72.13.56-.89.71-5.65,0-6.95,0-.31,0-.44.16-.44.49v21.48c0,4,.36,8.26,0,12.28,0,.38.27,1.94,0,2.23.45-.49-3.83-.43-4.51-.43-.31,0-.44.16-.44.5,0,1.46.34,3.49,0,4.89-.52,2.08.53,1.77-2,1.77l2.17,4V251.7c0-.89-.94-4-2.17-4h-8.75l2.17,4V172.84c0-.9-.93-4-2.17-4h-8.49l2.17,4V27.15c0-.89-.94-4-2.17-4h-2.92l2.16,4v-6c0-.89-.93-4-2.16-4h-4.92l2.17,4V14.92c0-.89-.94-4-2.17-4h-5.34l2.16,4V8.18c0-.9-.93-4-2.16-4h-13l2.16,4V4c0-.89-.93-4-2.16-4h-1c-.31,0-.44.16-.44.5,0,1.34.2,3.28-.29,3.65-.79.59-4,0-5,0l2.17,4V7.4c0-.89-.94-4-2.17-4h-6.6c-.31,0-.45.17-.45.5,0,.6-5.59.28-7.14.28-.31,0-.45.16-.45.49,0,1.24.68,5.36,0,6.08-.36.38-3.5.17-4.89.17-.31,0-.44.16-.44.5,0,1,.67,5.22,0,5.84-.09.07-3.7-.16-4.48-.16-.31,0-.45.17-.45.5,0,1.08.5,3.95,0,4.85-.57,1.06-.59.7-2.47.7-.31,0-.44.17-.44.5V173.31l2.28,2c-1.52-3.74-2.72-6.29-3.14-9.5-.14-1.13-.94-3.19-2.14-3.61-4.4-1.53-8.21-6.38-11.66-9.41s-6.53-7.72-11.39-7.24c-4.34.43-7.39,4.68-10.67,7.57s-7,7.57-11.42,9.1a.49.49,0,0,0-.21.48c-.23,1.68-3.91,14.28-4.46,14.28-.31,0-.44.16-.44.49,0,.9.41,1.42-.6,1.42-.31,0-.44.17-.44.5v29.22a42.47,42.47,0,0,0,0,4.37c.13,1.32-.35,1.17.41,1.17l2.16,4v-1.15c0-.89-.93-4-2.16-4h-2.76c-.31,0-.45.17-.45.5,0,1.27-3.91.65-5.07.65-.31,0-.44.17-.44.5,0,1,.63,4.82,0,5.43,0,0-3.64-.18-4.4-.18-.3,0-.44.17-.44.5,0,2-.18,1.58-2.08,1.58l2.16,4v-2.3c0-.9-.93-4-2.16-4h-2.85l2.16,4V205.42c0-.89-.93-4-2.16-4H349c-.31,0-.45.16-.45.49v73c0,2.69.39,5.68,0,8.34-.4,2.83-.39,1.4-4.22,1.4l2.17,4V214.19c0-.89-.93-4-2.17-4h-2.52l2.16,4v-7.86c0-.89-.93-4-2.16-4-3.08,0-1.72,1.26-3.9-1.5l-6.34-8.08c-.28-.36-1.74-2.73-2.2-2.79s.56,2.76.91,2.34c.59-.7,0-4.49,0-5.36v-40.2c0-1.23-.49-3.6,0-4.73.95-2.21,5.58-4.69,7.39-7.16A27.69,27.69,0,0,0,341.31,110c-5.48-17.17-25.66-27.2-41.54-16.45-17.32,11.72-13.85,36.57,1.9,47.73l-1.88-3.88V187.8c0,1.33.68,4.94,0,6.12-.57,1,.76-.54-.15.06s-4.19,0-5.18,0h-9.88c-.31,0-.45.16-.45.49V279c0,2.37.58,2.83-1,2.83-.31,0-.45.16-.45.49,0,2.73,1.23,6.45-1.48,6.45l2.17,4V246.51c0-.89-.93-4-2.17-4H258.39l1.85,2.52c-.3-.76-1.17-3.66-.84-1.51-.06-.39,0-.81,0-1.2-.1-2,0-4,0-6V182.8c0-.89-.93-4-2.16-4H257l2.14,3.6-8.57-50.15c-.13-.8-1-3.6-2.14-3.6H229.5c-.35,0-.39.16-.45.49l-4.28,25.08-2.91,17c-.33,1.95-.63,3.91-1,5.86-.24,1.25-.47,1.74-.17,1.74-.3,0-.44.16-.44.49V211c0,1.47.61,4.41,0,5.8-.44,1,.32.72-2.36.54-5-.34-10.13,0-15.15,0-.3,0-.44.16-.44.49v38c0,1.25.42,3.61,0,4.81-.65,1.86,1,1.13-1.4,1.13-.31,0-.45.17-.45.5V272c0,1.52.5,3.87,0,5.28-.68,1.95.8,1.17-2.15,1.17l2.16,4v-11.1c0-.9-.93-4-2.16-4H187.2l2.16,4V257.25c0-.89-.93-4-2.16-4H171.64c-.31,0-.44.16-.44.5,0,3.6,1.19,9.28,0,12.61-.53,1.48.4,1.13-2.62,1-1.87-.1-3.77,0-5.64,0l2.16,4V256.05c0-.9-.93-4-2.16-4h-9.81l2.16,4V221c0-.9-.93-4-2.16-4H141.47l2.16,4V189.64c0-.9-.93-4-2.16-4H104.83c-.31,0-.44.16-.44.49,0,1.48.84,6.31,0,7.37-.33.42-4.27.15-5.86.15-.31,0-.44.16-.44.49,0,2.52.47,5.5,0,8-.39,2,.33,1.28-2.78,1.28H79.64c-.31,0-.44.17-.44.5v8.9c0,1.73,1.11,8.84,0,10.15.66-.79-1.77-.34-2.38-.37-1.83-.07-3.68,0-5.52,0H61.61c-.31,0-.45.16-.45.5,0,4.46,1.31,11,0,15.19-.19.61-.3,1.62.23,1.2-.47.38-2.62,0-3.24,0H50.73c-.31,0-.44.16-.44.49,0,8.48,1.18,17.8,0,26.17-.33,2.33.71.76-.56,1.22-1.55.55-4.6,0-6.23,0H30.94c-.31,0-.44.16-.44.49,0,1.48.06,5.42.05,5.43-1.15.87-6.75,0-8.08,0H5.76c-.31,0-.44.16-.44.5v18.74c0,3.09.6,6.92,0,10-.54,2.66-1.23,1.4-4.93,1.4-1.15,0,.49,4.52,1.72,4.52H7.48c.31,0,.45-.16.45-.49V285.18c0-1.75-.72-5.34,0-6.95.41-.94-.63-.58,1.82-.48,2.74.1,5.49,0,8.23,0H32.66c.31,0,.45-.17.45-.5,0-.9,0-5.71-.33-5.43.64-.58,5.11,0,5.83,0H52.45c.31,0,.44-.16.44-.49V250.07a27.76,27.76,0,0,1,0-4.91c.29-1.5-.1-1.12.07-1.22,2.17-1.17,7.78,0,10.37,0,.31,0,.44-.16.44-.49V235c0-2.08-.14-4.23,0-6.31.08-1.16.17-1.85-.12-1.63,1.4-1,7.63,0,9.37,0h8.34c.31,0,.45-.17.45-.5v-8.9c0-1.63-.7-9.38-.16-10,.31-.34,7.9.19,9.16.19h9.44c.31,0,.45-.17.45-.5,0-2.33-.81-6.31,0-8.42.62-1.61-.72-.36,1.42-.82a23.41,23.41,0,0,1,4.43,0c.31,0,.45-.16.45-.49a38,38,0,0,1,0-5.94c.41-2.51-1-1,.63-1.58,3-1.09,8.53,0,11.69,0h23.87l-2.17-4v31.33c0,.89.94,4,2.17,4h11.66l-2.17-4v35.08c0,.89.93,4,2.17,4h9.81l-2.16-4v15.28c0,.9.93,4,2.16,4h8.7c.31,0,.44-.16.44-.49,0-2.63-.6-13.22-.06-13.58,1.35-.91,6.46,0,8.08,0h7.1l-2.17-4v14.07c0,.9.93,4,2.17,4H200l-2.16-4V278.9c0,.89.93,4,2.16,4h2.6c.31,0,.44-.17.44-.5v-9c0-1.72-.36-3.87,0-5.54.42-1.9-.69-1.6,1.4-1.6.31,0,.45-.17.45-.5V231.05c0-2.49.07-5,0-7.48s-.41-1.38.65-1.74c2.44-.84,6.64,0,9.22,0h7.64c.3,0,.44-.16.44-.5V189.1c0-1.53.23-5.8-.22-5.8.35,0,.39-.17.45-.5l6.52-38.14,1.5-8.77a9,9,0,0,1,.42-2.48c.77-1.24-.7.2.17-.26,2-1.07,7.34,0,9.66,0h8.79L248,129.54l8.57,50.15c.14.81,1,3.61,2.14,3.61H259l-2.17-4v35.26c0,9.45-2,21,1.48,30,.23.58,1,2.52,1.85,2.52H283l-2.16-4v46.29c0,.89.93,4,2.16,4h1.93c.31,0,.44-.16.44-.49,0-2-.93-6.45,1-6.45.31,0,.44-.16.44-.49V201.94c0-.73-.34-2.52,0-3.21.63-1.29-1.21.28.85-.23,4.24-1.05,10,0,14.37,0,.3,0,.44-.16.44-.49V156.55c0-5,.82-10.7,0-15.6-.43-2.57-1.44-3.32-3.33-5-8.59-7.47-10.7-18.56-5.58-28.51a25.93,25.93,0,0,1,37.88-9c8.83,6.4,10.86,18.38,6.38,27.89a25.69,25.69,0,0,1-6.53,8.59c-1.2,1-3,1.66-3.54,3.11s0,4.14,0,5.6v38.29c0,4.33-.6,7.74,1.95,11.36,3.32,4.71,7.76,13.54,13.91,13.54l-2.17-4v7.86c0,.89.93,4,2.17,4h2.52l-2.16-4v74.45c0,.89.93,4,2.16,4h4.67c.31,0,.44-.16.44-.5v-72.5c0-2.73-.82-7,0-9.64.48-1.51-.54-.28,0-.59,1.36-.76,5.37,0,6.83,0H372.2l-2.17-4V220.2c0,.89.94,4,2.17,4h2.85l-2.17-4v2.3c0,.9.94,4,2.17,4h2.53c.3,0,.44-.16.44-.49,0-2.65,1.94-1.58,4.39-1.58.31,0,.44-.16.44-.5,0-1-.64-4.77,0-5.43.1-.1,4.26.18,5.08.18.31,0,.44-.17.44-.5,0-1.21,1.34-.65,2.32-.65l-2.16-4v1.15c0,.89.93,4,2.16,4h0c.31,0,.44-.17.44-.5V188a21.28,21.28,0,0,1,0-3.91c.26-1.23-.46-.59.6-.59.31,0,.45-.16.45-.5,0-.71-.44-1.42.39-1.42.33,0,.41-.16.44-.49.35-3.57,1.69-6.2,2.87-9.56.28-.8.51-1.81.84-2.56.95-2.18.39-1.36,1.94-2.8,5.11-4.75,10.49-9.25,15.73-13.86,9.36-8.26,18.58,11.51,27.15,14.5l-2.13-3.61c.54,4.25,2.11,7.68,3.73,11.66.15.38,2.28,3.69,2.28,2V30.9c0-3.75-.83-3.25,2.48-3.25.31,0,.44-.17.44-.5,0-1-.66-5.1,0-5.71.06-.06,3.7.16,4.48.16.31,0,.44-.16.44-.5,0-1-.68-5.19,0-5.84.15-.13,4.07.16,4.9.16.31,0,.44-.17.44-.5,0-1.15-.21-6.23-.18-6.25,1-.83,5.88,0,7.33,0,.31,0,.44-.16.44-.49,0-.64,4.7-.28,6.16-.28l-2.16-4v.77c0,.89.93,4,2.16,4h5.76c.31,0,.44-.16.44-.49,0-1.13-.58-3.66.55-3.66L477,.5V4.64c0,.89.93,4,2.17,4h13l-2.17-4v6.75c0,.89.94,4,2.17,4h5.34l-2.16-4v6.18c0,.89.93,4,2.16,4h4.92l-2.17-4v6.05c0,.89.93,4,2.17,4h2.92l-2.16-4V169.3c0,.89.93,4,2.16,4h8.49l-2.16-4v78.87c0,.89.93,4,2.16,4h8.75l-2.16-4V261c0,.89.93,4,2.16,4H525c.31,0,.44-.17.44-.5,0-1.6-.73-5.21,0-6.45.28-.45,3.16-.21,4.51-.21.31,0,.45-.17.45-.5V234.56c0-3.4-.88-8.29,0-11.6.57-2.17-.75-.45.69-1.13s4.47,0,6.13,0c.3,0,.44-.16.44-.5V143.18c0-1.57-.77-5.58,0-7s-.93.51.6-.23,5.41,0,7.22,0c.31,0,.44-.17.44-.5,0-3.36-.88-9.51.51-11.83,3-4.92,2.91-3,6.37.31l-1.57-3.61v4.83c0,.89.93,4,2.17,4h.75c.31,0,.44-.16.44-.5,0-1.47.29-1.17,1.66-1.17l-2.16-4v1.67c0,.89.93,4,2.16,4h1.84c.31,0,.45-.16.45-.5s1.06-.11,1.74-.11l-2.16-4v.61c0,.89.93,4,2.16,4h1.84c.31,0,.45-.16.45-.5,0-.71-.46-2.22.26-2.22l-2.17-4v2.72c0,.89.93,4,2.17,4h1.69c.3,0,.44-.16.44-.5,0-1.16-.49-5.76-.07-6.14s4.43.07,5.28.07c.3,0,.44-.17.44-.5,0-3.21-1.17-4.94,2.27-4.94.31,0,.45-.16.45-.49,0-.77-.15-.73.58-.73.31,0,.45-.17.45-.5,0-6-1.27-13.42,0-19.26.3-1.4,1.65-4.17,3.49-4.65.17,0-1-.42.67.57a17.49,17.49,0,0,1,2.72,2.72l-1.56-3.6v20.69c0,.89.93,4,2.16,4h1l-2.16-4v1.23c0,.89.93,4,2.16,4h2.72l-2.17-4v5.43c0,.89.94,4,2.17,4h5.65l-2.17-4V124c0,.9.94,4,2.17,4h1.47c.31,0,.44-.16.44-.49s0-.41-.09-.12l-2.16-4V124c0,.9.93,4,2.16,4h1.4l-2.16-4v1.14c0,.89.93,4,2.16,4h1.84c.31,0,.44-.16.44-.5s.75,0,1.23,0c.31,0,.44-.16.44-.49,0-1.19.4-.82,1.48-.82l-2.16-4v1.32c0,.89.93,4,2.16,4h1.85l-2.17-4v.52c0,.89.94,4,2.17,4h.61c.31,0,.44-.16.44-.5,0-3.44-.24-6.07,3.41-8,.31-.16-.23-.32.12-.15,1.2.56,2.38,2.43,3.36,3.36l-1.57-3.61v11.6c0,.89.93,4,2.17,4h8.26l-2.17-4V245.73c0,.89.94,4,2.17,4h12.79l-2.16-4v20c0,.89.93,4,2.16,4h8.74l-2.17-4v11.17c0,.89.93,4,2.17,4h1.47l-2.16-4v10.91c0,.89.93,4,2.16,4H644c.31,0,.45-.17.45-.5V185.81c0-1.25-.73-5.4,0-6.47a11.14,11.14,0,0,0,2.86.13h7.12c.3,0,.44-.16.44-.49,0-3.55.62-2.46,4.48-2.46h9a.3.3,0,0,0,.38-.19c2.54-6.33,5.78-14.76,1.6-20.85l1.17,3.52c.84-2.29,1.49-2.32,1.44-5.6,0-1.9-.49-.85.57-.87l-2.17-4v0c0,.89.94,4,2.17,4h0l-2.17-4a16.37,16.37,0,0,0,.58,6.68,14.86,14.86,0,0,1,.91,1.7c.49,3.64,1-6.46-.93-.72-1.5,4.5,2.27,13.62,4,17.8.23.58,1,2.53,1.84,2.53h14.2l-2.16-4v2.95c0,.9.93,4,2.16,4h9.58l-2.16-4V235c0,.89.93,4,2.16,4h.61L700,235v1c0,.89.93,4,2.16,4h1.63l-2.16-4v12.07c0,.89.93,4,2.16,4H707l-2.16-4v2.83c0,.89.93,4,2.16,4h3.63l-2.17-4v4c0,.89.93,4,2.17,4h2.92c.31,0,.45-.17.45-.5V247.11c0-2.05-.52-4.9,0-6.9s-.81-1.24,1.61-1.24c.31,0,.45-.17.45-.5,0-1.53-.93-7.36,0-8.49,0,0,6.06.25,7.26.25l-2.17-4v8.74c0,.89.94,4,2.17,4h8.36c.31,0,.45-.17.45-.5V221.81c0-3.4-.81-2.85,1.43-3.23,2.65-.44,5.72,0,8.41,0,.31,0,.45-.16.45-.49V168.73c0-2.63-1.32-9.54,0-11.89.42-.76-1,.41.66,0s4,0,5.68,0h49.54l-2.16-4v69.82c0,.89.93,4,2.16,4h10.3l-2.16-4v56.22c0,.9.93,4,2.16,4h9.26c.31,0,.44-.16.44-.49V148.12c0-3.63,0-7.26,0-10.89,0-.62,0-1.23,0-1.85a52.79,52.79,0,0,1,.48-6.88c.07-.43,2.33-10.08,4-6.54.2.44.92,1.92,1.58,1.92,7.36,0,16,1.32,23.16,0a12.76,12.76,0,0,0,2.4-.58c1.36-.47,2.48-1.66,4-2,3.82-.75,5,1.7,8,2.39,3.16.76,7.13.15,10.4.15a.31.31,0,0,0,.39-.19c2.55-5.51,3.89,6.85,3.92,8.49,0,1.29,0,2.58,0,3.86V176c0,.9.93,4,2.16,4h4.65c.31,0,.45-.16.45-.49,0-2-.88-6.28,0-8,1-1.9-1,.27,0-.42.55-.35,2.64,0,3.26,0h15.14l-2.17-4V176c0,.9.93,4,2.17,4h14.58c.31,0,.45-.16.45-.49,0-1.52-.35-8.26-.23-8.37,1.16-1,7.5,0,9.21,0l-2.16-4V233.4c0,.89.93,4,2.16,4h4.09c.31,0,.45-.16.45-.49,0-4.7-.11-3.61,4.77-3.61h10.71c.31,0,.44-.17.44-.5,0-1.93-.49-10.09-.25-10.29,1.5-1.27,8.93,0,11.11,0l-2.16-4v14.9c0,.89.93,4,2.16,4h6.17l-2.16-4v36.93c0,.89.93,4,2.16,4h5c.31,0,.44-.16.44-.5,0-.92-.28-5.34-.13-5.47.92-.82,5.73,0,7,0,.31,0,.45-.17.45-.5V240.52c0-1.58-.83-5.85,0-7.25.48-.82-.87.53.06,0,.6-.31,2.31,0,3,0h28.36l-2.17-4v8.22c0,.89.93,4,2.17,4h16.44l-2.17-4v24.27c0,.89.93,4,2.17,4H1028c.31,0,.44-.17.44-.5,0-1.08-.56-4.13,0-4.87-.22.29.61.26,1.42.11,3.26-.62,7.27,0,10.58,0h19.41l-2.16-4v36.13c0,.89.93,4,2.16,4h15.55l-2.16-4v3.43c0,.89.93,4,2.16,4h8.6l-2.16-4v4.73c0,.89.93,4,2.16,4h2.2l-2.16-4v3.5c0,.89.93,4,2.16,4,2.95,0,5.92.12,8.86,0,3.77-.15,5.49-1.29,9.07-3.18,12.81-6.78,27.76-13.92,42.64-10.63a31.91,31.91,0,0,1,16.58,9.1c7.09,7.79,2.7,15.13,5,23.74,2.79,10.61,13.7,10.84,23,11.3,15,.74,28.84-2.41,43.5-4.52,6.31-.91,13.25-1.47,19.34.87,8.72,3.36,10.34,12.88,15.06,19.88,12.82,19,39.4,18.51,59.52,15.17a169.78,169.78,0,0,0,85.95-42c1.05-1-1.59-5-2.18-4.5Z"/></g></g></svg>